<?xml version="1.0" standalone="no"?>
<!DOCTYPE svg PUBLIC "-//W3C//DTD SVG 20010904//EN"
 "http://www.w3.org/TR/2001/REC-SVG-20010904/DTD/svg10.dtd">
<svg version="1.0" xmlns="http://www.w3.org/2000/svg"
 width="1311.000000pt" height="241.000000pt" viewBox="0 0 1311.000000 241.000000"
 preserveAspectRatio="xMidYMid meet">
<metadata>
Created by potrace 1.16, written by Peter Selinger 2001-2019
</metadata>
<g transform="translate(0.000000,241.000000) scale(0.100000,-0.100000)"
fill="#000000" stroke="none">
<path d="M920 2030 c-25 -4 -58 -12 -73 -18 -49 -20 -140 -88 -209 -153 -150
-145 -236 -226 -275 -261 -68 -60 -129 -142 -148 -197 -14 -44 -16 -86 -13
-314 6 -348 -5 -323 223 -532 103 -94 198 -184 290 -275 23 -21 59 -47 80 -56
22 -9 54 -22 70 -29 17 -7 41 -16 55 -19 14 -3 2569 -6 5679 -6 l5654 0 52 24
c28 14 66 43 86 66 19 23 40 47 46 54 29 26 129 125 144 143 9 10 37 35 62 56
43 36 67 58 167 151 25 23 59 69 75 101 l30 60 3 283 3 283 -31 58 c-33 62
-90 125 -186 206 -32 27 -68 58 -79 70 -11 11 -56 51 -100 88 -44 37 -99 86
-121 107 -23 22 -46 40 -51 40 -5 0 -15 9 -23 20 -8 11 -19 20 -26 20 -6 0
-26 8 -45 18 -27 14 -58 17 -159 16 -69 -1 -1859 -2 -3978 -3 -2568 -1 -3879
-5 -3930 -12 -97 -13 -170 -36 -181 -57 -10 -18 -34 -42 -160 -159 -41 -37
-93 -87 -116 -111 l-43 -43 -693 2 -694 2 -130 132 c-147 149 -228 209 -319
237 -37 11 -871 18 -936 8z"/>
</g>
</svg>
